<svg data-v-423bf9ae="" xmlns="http://www.w3.org/2000/svg" viewBox="0 0 200.69106496344054 163" class="iconAbove">
    <!---->
    <defs data-v-423bf9ae="">
        <linearGradient data-v-423bf9ae="" gradientTransform="rotate(25)" id="2234a575-19c4-442e-9cc8-76a280e25090"
            x1="0%" y1="0%" x2="100%" y2="0%">
            <stop data-v-423bf9ae="" offset="0%" style="stop-color: rgb(50, 20, 45); stop-opacity: 1;"></stop>
            <stop data-v-423bf9ae="" offset="100%" style="stop-color: rgb(50, 20, 45); stop-opacity: 1;"></stop>
        </linearGradient>
    </defs>
    <!---->
    <g data-v-423bf9ae="" id="f76728e6-44c1-42e5-9df4-cd5d14ed55c0" fill="#ffffff"
        transform="matrix(4.065040587370328,0,0,4.065040587370328,-3.902439183367406,92.06504106420749)">
        <path
            d="M0.96 13.64L0.96 6.40L3.29 6.40L3.61 8.50L3.61 8.50Q3.73 8.29 3.84 8.08L3.84 8.08L3.84 8.08Q3.96 7.88 4.06 7.70L4.06 7.70L4.06 7.70Q4.16 7.53 4.23 7.40L4.23 7.40L4.23 7.40Q4.30 7.27 4.32 7.23L4.32 7.23L4.32 7.23Q4.45 7.02 4.60 6.84L4.60 6.84L4.60 6.84Q4.76 6.67 4.95 6.54L4.95 6.54L4.95 6.54Q5.15 6.41 5.39 6.33L5.39 6.33L5.39 6.33Q5.63 6.26 5.94 6.26L5.94 6.26L5.94 6.26Q6.14 6.26 6.40 6.32L6.40 6.32L6.40 6.32Q6.65 6.37 6.88 6.49L6.88 6.49L6.58 8.93L6.58 8.93Q6.51 8.91 6.40 8.90L6.40 8.90L6.40 8.90Q6.28 8.89 6.15 8.89L6.15 8.89L6.15 8.89Q6.02 8.88 5.90 8.88L5.90 8.88L5.90 8.88Q5.78 8.87 5.69 8.87L5.69 8.87L5.69 8.87Q5.39 8.87 5.09 8.91L5.09 8.91L5.09 8.91Q4.80 8.96 4.54 9.03L4.54 9.03L4.54 9.03Q4.27 9.11 4.05 9.23L4.05 9.23L4.05 9.23Q3.83 9.34 3.69 9.47L3.69 9.47L3.69 13.64L0.96 13.64ZM14.54 11.73L14.54 12.84L14.54 12.84Q14.13 13.13 13.73 13.31L13.73 13.31L13.73 13.31Q13.32 13.49 12.94 13.60L12.94 13.60L12.94 13.60Q12.55 13.70 12.18 13.74L12.18 13.74L12.18 13.74Q11.81 13.78 11.46 13.78L11.46 13.78L11.46 13.78Q10.52 13.78 9.79 13.55L9.79 13.55L9.79 13.55Q9.06 13.31 8.57 12.87L8.57 12.87L8.57 12.87Q8.07 12.42 7.81 11.78L7.81 11.78L7.81 11.78Q7.55 11.14 7.55 10.32L7.55 10.32L7.55 10.32Q7.55 9.35 7.89 8.60L7.89 8.60L7.89 8.60Q8.23 7.85 8.80 7.33L8.80 7.33L8.80 7.33Q9.37 6.81 10.11 6.54L10.11 6.54L10.11 6.54Q10.86 6.26 11.68 6.26L11.68 6.26L11.68 6.26Q12.40 6.26 13.00 6.48L13.00 6.48L13.00 6.48Q13.60 6.69 14.04 7.11L14.04 7.11L14.04 7.11Q14.47 7.53 14.71 8.16L14.71 8.16L14.71 8.16Q14.95 8.78 14.95 9.58L14.95 9.58L14.95 9.58Q14.95 9.89 14.92 10.10L14.92 10.10L14.92 10.10Q14.90 10.32 14.87 10.43L14.87 10.43L10.36 10.43L10.36 10.43Q10.36 10.88 10.51 11.18L10.51 11.18L10.51 11.18Q10.66 11.48 10.95 11.67L10.95 11.67L10.95 11.67Q11.24 11.85 11.65 11.94L11.65 11.94L11.65 11.94Q12.05 12.02 12.56 12.02L12.56 12.02L12.56 12.02Q12.97 12.02 13.50 11.96L13.50 11.96L13.50 11.96Q14.03 11.89 14.54 11.73L14.54 11.73ZM10.36 9.58L12.49 9.58L12.49 9.58Q12.49 9.13 12.41 8.81L12.41 8.81L12.41 8.81Q12.34 8.48 12.21 8.27L12.21 8.27L12.21 8.27Q12.07 8.07 11.88 7.97L11.88 7.97L11.88 7.97Q11.68 7.88 11.45 7.88L11.45 7.88L11.45 7.88Q10.94 7.88 10.65 8.30L10.65 8.30L10.65 8.30Q10.36 8.73 10.36 9.58L10.36 9.58ZM17.48 14.26L17.48 14.26L17.48 14.26Q16.85 14.04 16.54 13.73L16.54 13.73L16.54 13.73Q16.24 13.42 16.24 13.07L16.24 13.07L16.24 13.07Q16.24 12.82 16.38 12.62L16.38 12.62L16.38 12.62Q16.52 12.41 16.75 12.23L16.75 12.23L16.75 12.23Q16.99 12.05 17.28 11.89L17.28 11.89L17.28 11.89Q17.58 11.74 17.88 11.58L17.88 11.58L17.88 11.58Q17.32 11.40 16.96 11.12L16.96 11.12L16.96 11.12Q16.60 10.84 16.39 10.52L16.39 10.52L16.39 10.52Q16.17 10.19 16.09 9.85L16.09 9.85L16.09 9.85Q16.00 9.51 16.00 9.19L16.00 9.19L16.00 9.19Q16.00 8.54 16.29 8.01L16.29 8.01L16.29 8.01Q16.58 7.47 17.08 7.08L17.08 7.08L17.08 7.08Q17.58 6.69 18.27 6.48L18.27 6.48L18.27 6.48Q18.96 6.26 19.77 6.26L19.77 6.26L19.77 6.26Q20.34 6.26 20.89 6.37L20.89 6.37L20.89 6.37Q21.44 6.49 21.83 6.73L21.83 6.73L21.83 6.73Q21.93 6.67 22.05 6.61L22.05 6.61L22.05 6.61Q22.16 6.56 22.33 6.51L22.33 6.51L22.33 6.51Q22.49 6.46 22.71 6.43L22.71 6.43L22.71 6.43Q22.93 6.40 23.24 6.40L23.24 6.40L24.21 6.40L23.85 8.01L22.80 8.01L22.80 8.01Q22.88 8.19 22.94 8.39L22.94 8.39L22.94 8.39Q23.00 8.60 23.00 8.89L23.00 8.89L23.00 8.89Q23.00 9.51 22.71 10.02L22.71 10.02L22.71 10.02Q22.41 10.54 21.91 10.91L21.91 10.91L21.91 10.91Q21.41 11.29 20.75 11.49L20.75 11.49L20.75 11.49Q20.10 11.70 19.38 11.70L19.38 11.70L19.13 11.70L19.13 11.70Q19.07 11.74 18.99 11.79L18.99 11.79L18.99 11.79Q18.92 11.84 18.85 11.90L18.85 11.90L18.85 11.90Q18.79 11.97 18.74 12.05L18.74 12.05L18.74 12.05Q18.70 12.13 18.70 12.23L18.70 12.23L18.70 12.23Q18.70 12.41 18.85 12.53L18.85 12.53L18.85 12.53Q19.01 12.65 19.31 12.65L19.31 12.65L20.90 12.65L20.90 12.65Q21.39 12.65 21.89 12.74L21.89 12.74L21.89 12.74Q22.39 12.83 22.80 13.05L22.80 13.05L22.80 13.05Q23.21 13.26 23.47 13.61L23.47 13.61L23.47 13.61Q23.73 13.95 23.73 14.46L23.73 14.46L23.73 14.46Q23.73 14.96 23.44 15.49L23.44 15.49L23.44 15.49Q23.15 16.02 22.57 16.46L22.57 16.46L22.57 16.46Q21.99 16.89 21.11 17.17L21.11 17.17L21.11 17.17Q20.23 17.45 19.03 17.45L19.03 17.45L19.03 17.45Q18.33 17.45 17.74 17.34L17.74 17.34L17.74 17.34Q17.14 17.24 16.70 17.04L16.70 17.04L16.70 17.04Q16.26 16.84 16.02 16.56L16.02 16.56L16.02 16.56Q15.77 16.27 15.77 15.91L15.77 15.91L15.77 15.91Q15.77 15.62 15.92 15.39L15.92 15.39L15.92 15.39Q16.06 15.16 16.30 14.96L16.30 14.96L16.30 14.96Q16.54 14.77 16.85 14.59L16.85 14.59L16.85 14.59Q17.16 14.42 17.48 14.26ZM18.41 8.95L18.41 8.95L18.41 8.95Q18.41 9.24 18.50 9.48L18.50 9.48L18.50 9.48Q18.60 9.71 18.76 9.88L18.76 9.88L18.76 9.88Q18.92 10.05 19.13 10.14L19.13 10.14L19.13 10.14Q19.35 10.23 19.58 10.23L19.58 10.23L19.58 10.23Q19.81 10.23 20.01 10.14L20.01 10.14L20.01 10.14Q20.21 10.06 20.36 9.91L20.36 9.91L20.36 9.91Q20.51 9.75 20.60 9.52L20.60 9.52L20.60 9.52Q20.69 9.30 20.69 9.02L20.69 9.02L20.69 9.02Q20.69 8.72 20.60 8.49L20.60 8.49L20.60 8.49Q20.50 8.25 20.34 8.08L20.34 8.08L20.34 8.08Q20.19 7.92 19.97 7.83L19.97 7.83L19.97 7.83Q19.76 7.74 19.52 7.74L19.52 7.74L19.52 7.74Q19.30 7.74 19.10 7.82L19.10 7.82L19.10 7.82Q18.89 7.90 18.74 8.06L18.74 8.06L18.74 8.06Q18.59 8.22 18.50 8.44L18.50 8.44L18.50 8.44Q18.41 8.67 18.41 8.95ZM20.25 14.41L18.71 14.41L18.71 14.41Q18.52 14.56 18.38 14.72L18.38 14.72L18.38 14.72Q18.23 14.89 18.23 15.11L18.23 15.11L18.23 15.11Q18.23 15.43 18.58 15.63L18.58 15.63L18.58 15.63Q18.94 15.83 19.62 15.83L19.62 15.83L19.62 15.83Q20.04 15.83 20.34 15.76L20.34 15.76L20.34 15.76Q20.65 15.68 20.86 15.56L20.86 15.56L20.86 15.56Q21.06 15.44 21.16 15.28L21.16 15.28L21.16 15.28Q21.27 15.13 21.27 14.98L21.27 14.98L21.27 14.98Q21.27 14.74 21.02 14.57L21.02 14.57L21.02 14.57Q20.77 14.41 20.25 14.41L20.25 14.41ZM29.03 12.61L29.03 12.61L29.03 12.61Q28.81 12.79 28.55 13.00L28.55 13.00L28.55 13.00Q28.29 13.20 27.98 13.37L27.98 13.37L27.98 13.37Q27.67 13.55 27.32 13.67L27.32 13.67L27.32 13.67Q26.97 13.78 26.58 13.78L26.58 13.78L26.58 13.78Q26.08 13.78 25.72 13.58L25.72 13.58L25.72 13.58Q25.36 13.38 25.14 13.07L25.14 13.07L25.14 13.07Q24.91 12.76 24.80 12.40L24.80 12.40L24.80 12.40Q24.70 12.03 24.70 11.70L24.70 11.70L24.70 11.70Q24.70 11.17 24.95 10.73L24.95 10.73L24.95 10.73Q25.20 10.28 25.71 9.96L25.71 9.96L25.71 9.96Q26.22 9.63 26.98 9.45L26.98 9.45L26.98 9.45Q27.75 9.27 28.77 9.27L28.77 9.27L28.92 9.27L28.92 8.91L28.92 8.91Q28.92 8.39 28.60 8.13L28.60 8.13L28.60 8.13Q28.28 7.88 27.73 7.88L27.73 7.88L27.73 7.88Q27.48 7.88 27.20 7.94L27.20 7.94L27.20 7.94Q26.93 8.00 26.65 8.11L26.65 8.11L26.65 8.11Q26.37 8.22 26.09 8.36L26.09 8.36L26.09 8.36Q25.82 8.50 25.57 8.67L25.57 8.67L25.45 8.60L25.01 7.01L25.01 7.01Q25.92 6.62 26.74 6.44L26.74 6.44L26.74 6.44Q27.56 6.26 28.38 6.26L28.38 6.26L28.38 6.26Q29.04 6.26 29.63 6.38L29.63 6.38L29.63 6.38Q30.22 6.50 30.67 6.78L30.67 6.78L30.67 6.78Q31.12 7.05 31.39 7.52L31.39 7.52L31.39 7.52Q31.66 7.98 31.66 8.67L31.66 8.67L31.66 11.36L31.66 11.36Q31.66 11.63 31.76 11.82L31.76 11.82L31.76 11.82Q31.86 12.02 32.15 12.02L32.15 12.02L32.15 12.02Q32.25 12.02 32.32 12.01L32.32 12.01L32.32 12.01Q32.39 12.00 32.49 11.96L32.49 11.96L32.49 13.07L32.49 13.07Q32.01 13.41 31.52 13.60L31.52 13.60L31.52 13.60Q31.04 13.78 30.58 13.78L30.58 13.78L30.58 13.78Q30.05 13.78 29.66 13.50L29.66 13.50L29.66 13.50Q29.27 13.23 29.03 12.61ZM28.92 11.70L28.92 10.12L28.75 10.12L28.75 10.12Q28.29 10.12 27.98 10.19L27.98 10.19L27.98 10.19Q27.67 10.25 27.48 10.38L27.48 10.38L27.48 10.38Q27.29 10.51 27.20 10.70L27.20 10.70L27.20 10.70Q27.12 10.89 27.12 11.14L27.12 11.14L27.12 11.14Q27.12 11.38 27.19 11.55L27.19 11.55L27.19 11.55Q27.26 11.72 27.38 11.82L27.38 11.82L27.38 11.82Q27.50 11.93 27.65 11.97L27.65 11.97L27.65 11.97Q27.81 12.02 27.97 12.02L27.97 12.02L27.97 12.02Q28.19 12.02 28.44 11.94L28.44 11.94L28.44 11.94Q28.68 11.87 28.92 11.70L28.92 11.70ZM33.65 13.64L33.65 2.69L36.39 2.69L36.39 13.64L33.65 13.64ZM38.30 13.64L38.30 6.40L41.04 6.40L41.04 13.64L38.30 13.64ZM39.63 5.40L39.63 5.40L39.63 5.40Q39.28 5.40 39.00 5.30L39.00 5.30L39.00 5.30Q38.72 5.20 38.52 5.03L38.52 5.03L38.52 5.03Q38.32 4.85 38.22 4.62L38.22 4.62L38.22 4.62Q38.11 4.39 38.11 4.12L38.11 4.12L38.11 4.12Q38.11 3.85 38.23 3.60L38.23 3.60L38.23 3.60Q38.34 3.36 38.55 3.18L38.55 3.18L38.55 3.18Q38.77 3.00 39.06 2.90L39.06 2.90L39.06 2.90Q39.35 2.79 39.71 2.79L39.71 2.79L39.71 2.79Q40.06 2.79 40.34 2.89L40.34 2.89L40.34 2.89Q40.62 2.99 40.82 3.16L40.82 3.16L40.82 3.16Q41.02 3.34 41.12 3.57L41.12 3.57L41.12 3.57Q41.23 3.80 41.23 4.07L41.23 4.07L41.23 4.07Q41.23 4.35 41.11 4.59L41.11 4.59L41.11 4.59Q41.00 4.83 40.78 5.01L40.78 5.01L40.78 5.01Q40.57 5.19 40.28 5.29L40.28 5.29L40.28 5.29Q39.98 5.40 39.63 5.40ZM46.87 12.61L46.87 12.61L46.87 12.61Q46.66 12.79 46.39 13.00L46.39 13.00L46.39 13.00Q46.13 13.20 45.82 13.37L45.82 13.37L45.82 13.37Q45.51 13.55 45.16 13.67L45.16 13.67L45.16 13.67Q44.81 13.78 44.43 13.78L44.43 13.78L44.43 13.78Q43.92 13.78 43.56 13.58L43.56 13.58L43.56 13.58Q43.20 13.38 42.98 13.07L42.98 13.07L42.98 13.07Q42.75 12.76 42.65 12.40L42.65 12.40L42.65 12.40Q42.54 12.03 42.54 11.70L42.54 11.70L42.54 11.70Q42.54 11.17 42.79 10.73L42.79 10.73L42.79 10.73Q43.04 10.28 43.55 9.96L43.55 9.96L43.55 9.96Q44.06 9.63 44.82 9.45L44.82 9.45L44.82 9.45Q45.59 9.27 46.61 9.27L46.61 9.27L46.76 9.27L46.76 8.91L46.76 8.91Q46.76 8.39 46.44 8.13L46.44 8.13L46.44 8.13Q46.12 7.88 45.58 7.88L45.58 7.88L45.58 7.88Q45.32 7.88 45.05 7.94L45.05 7.94L45.05 7.94Q44.77 8.00 44.49 8.11L44.49 8.11L44.49 8.11Q44.21 8.22 43.93 8.36L43.93 8.36L43.93 8.36Q43.66 8.50 43.42 8.67L43.42 8.67L43.29 8.60L42.85 7.01L42.85 7.01Q43.76 6.62 44.58 6.44L44.58 6.44L44.58 6.44Q45.40 6.26 46.22 6.26L46.22 6.26L46.22 6.26Q46.88 6.26 47.47 6.38L47.47 6.38L47.47 6.38Q48.06 6.50 48.51 6.78L48.51 6.78L48.51 6.78Q48.97 7.05 49.23 7.52L49.23 7.52L49.23 7.52Q49.50 7.98 49.50 8.67L49.50 8.67L49.50 11.36L49.50 11.36Q49.50 11.63 49.60 11.82L49.60 11.82L49.60 11.82Q49.70 12.02 49.99 12.02L49.99 12.02L49.99 12.02Q50.09 12.02 50.16 12.01L50.16 12.01L50.16 12.01Q50.23 12.00 50.33 11.96L50.33 11.96L50.33 13.07L50.33 13.07Q49.85 13.41 49.36 13.60L49.36 13.60L49.36 13.60Q48.88 13.78 48.43 13.78L48.43 13.78L48.43 13.78Q47.89 13.78 47.50 13.50L47.50 13.50L47.50 13.50Q47.11 13.23 46.87 12.61ZM46.76 11.70L46.76 10.12L46.59 10.12L46.59 10.12Q46.14 10.12 45.82 10.19L45.82 10.19L45.82 10.19Q45.51 10.25 45.32 10.38L45.32 10.38L45.32 10.38Q45.13 10.51 45.05 10.70L45.05 10.70L45.05 10.70Q44.96 10.89 44.96 11.14L44.96 11.14L44.96 11.14Q44.96 11.38 45.03 11.55L45.03 11.55L45.03 11.55Q45.10 11.72 45.22 11.82L45.22 11.82L45.22 11.82Q45.34 11.93 45.50 11.97L45.50 11.97L45.50 11.97Q45.65 12.02 45.81 12.02L45.81 12.02L45.81 12.02Q46.03 12.02 46.28 11.94L46.28 11.94L46.28 11.94Q46.53 11.87 46.76 11.70L46.76 11.70Z">
        </path>
    </g>
    <!---->
    <g data-v-423bf9ae="" id="a7d73723-5c20-41b0-9641-9561818eb76c"
        transform="matrix(1.9791964648385627,0,0,1.9791964648385627,2.17818764240684,-53.69681235759316)" stroke="none"
        fill="#ffffff">
        <path
            d="M72.51 55.514a7.59 7.59 0 0 1-.696 1.866c-1.206 2.28-3.26 3.561-4.585 2.86-1.326-.701-1.422-3.119-.217-5.401.587-1.105 1.371-1.974 2.176-2.499L48.19 27.264 29.063 52.339c.829.518 1.641 1.407 2.243 2.544 1.206 2.281 1.11 4.699-.215 5.401s-3.379-.579-4.585-2.861a7.648 7.648 0 0 1-.679-1.783l-14.688 5.054 3.957 12.043h69.051l4.715-11.959-16.352-5.264z">
        </path>
    </g>
    <!---->
</svg>